<?xml version="1.0" encoding="UTF-8" standalone="no"?>
<!-- Created with Inkscape (http://www.inkscape.org/) -->

<svg
   xmlns:dc="http://purl.org/dc/elements/1.1/"
   xmlns:cc="http://creativecommons.org/ns#"
   xmlns:rdf="http://www.w3.org/1999/02/22-rdf-syntax-ns#"
   xmlns:svg="http://www.w3.org/2000/svg"
   xmlns="http://www.w3.org/2000/svg"
   xmlns:sodipodi="http://sodipodi.sourceforge.net/DTD/sodipodi-0.dtd"
   xmlns:inkscape="http://www.inkscape.org/namespaces/inkscape"
   width="112.71503mm"
   height="100.97353mm"
   viewBox="0 0 399.38398 357.78024"
   id="svg2"
   version="1.1"
   inkscape:version="0.91 r13725"
   sodipodi:docname="familia.svg">
  <defs
     id="defs4" />
  <sodipodi:namedview
     id="base"
     pagecolor="#ffffff"
     bordercolor="#666666"
     borderopacity="1.0"
     inkscape:pageopacity="0.0"
     inkscape:pageshadow="2"
     inkscape:zoom="2.8"
     inkscape:cx="19.445223"
     inkscape:cy="151.62073"
     inkscape:document-units="px"
     inkscape:current-layer="layer2"
     showgrid="false"
     fit-margin-top="1"
     fit-margin-left="1"
     fit-margin-right="1"
     fit-margin-bottom="1"
     inkscape:window-width="4472"
     inkscape:window-height="1813"
     inkscape:window-x="0"
     inkscape:window-y="26"
     inkscape:window-maximized="0" />
  <metadata
     id="metadata7">
    <rdf:RDF>
      <cc:Work
         rdf:about="">
        <dc:format>image/svg+xml</dc:format>
        <dc:type
           rdf:resource="http://purl.org/dc/dcmitype/StillImage" />
        <dc:title></dc:title>
      </cc:Work>
    </rdf:RDF>
  </metadata>
  <g
     inkscape:groupmode="layer"
     id="layer2"
     inkscape:label="Capa 2"
     transform="translate(-84.23659,-510.2578)">
    <path
       style="display:inline;fill:#000000;fill-rule:evenodd;stroke:#000000;stroke-width:1px;stroke-linecap:butt;stroke-linejoin:miter;stroke-opacity:1"
       d="m 266.22769,703.50863 40.53236,-27.77919 10.98541,-36.23923 c -12.91772,-34.20164 16.42266,-68.78296 52.52794,-47.85597 25.51296,25.32425 42.73893,63.55445 47.7297,120.83949 0.15063,7.85437 -1.71094,12.89166 -4.92449,16.03618 0,0 -2.92541,54.70586 -5.17703,70.71067 12.72751,6.88788 65.15484,30.93593 65.15484,30.93593 11.62924,13.22177 8.18159,29.02841 -14.26841,27.65292 0,0 -64.54857,-27.63243 -80.4334,-41.28998 -4.57892,-3.93689 -0.50507,-73.36233 -0.50507,-73.36233 l -59.34646,31.31473 -0.50508,75.00382 c -6.14636,12.13615 -21.57943,17.04645 -30.55711,-0.25253 0,0 -1.88147,-84.00588 2.65165,-91.41881 6.17279,-10.09424 63.76588,-37.62818 63.76588,-37.62818 l -18.05648,-47.72971 -9.34391,19.5717 -47.35091,31.69354 c -11.62781,6.34743 -25.46522,-8.24615 -12.87943,-20.20305 z"
       id="path4210"
       inkscape:connector-curvature="0"
       sodipodi:nodetypes="cccccccccsccccsccccc" />
    <path
       style="display:inline;fill:#000000;fill-rule:evenodd;stroke:#000000;stroke-width:1px;stroke-linecap:butt;stroke-linejoin:miter;stroke-opacity:1"
       d="m 227.51813,787.23996 c 8.53932,-3.86519 9.17519,-14.00696 8.21429,-19.82143 -1.57554,-8.85115 -8.92857,-31.07143 -8.92857,-31.07143 l -5.22191,8.36035 c -6.80417,8.43817 -22.41427,-2.77234 -15.69262,-11.85875 l 13.6129,-21.03613 -1.74239,-7.90419 5.04148,1.09494 5.98849,-25.25254 c 0,0 -11.92936,-1.75345 -18.15302,-3.29908 -4.93169,-19.44598 -15.2615,-43.49746 -15.2615,-43.49746 -10.31204,-21.34453 -57.75343,-19.54105 -66.42858,-0.53571 L 88.946704,766.3471 c -1.162941,7.604 -2.026537,14.47626 8.571429,20.35714 l 25.482317,0.0354 -0.12517,63.53603 c 4.76174,17.91424 25.35758,16.15614 29.28571,0.17857 l -1.1146,-63.22403 21.64336,-0.23979 0.3641,64.89239 c 7.6215,19.94338 25.15833,11.81347 27.67857,0.17857 l 0.56743,-65.18256 c 0,0 14.5456,0.44729 26.21828,0.36114 z"
       id="path4216"
       inkscape:connector-curvature="0"
       sodipodi:nodetypes="ccccccccccccccccccccccc" />
    <circle
       style="opacity:1;fill:#000000;fill-opacity:1;fill-rule:evenodd;stroke:#0d0d0d;stroke-width:2.14108396;stroke-miterlimit:4;stroke-dasharray:none;stroke-dashoffset:0;stroke-opacity:1"
       id="path4202"
       cx="164.96814"
       cy="572.93817"
       r="36.429459" />
    <circle
       cy="555.30109"
       cx="290.43896"
       id="circle4204"
       style="opacity:1;fill:#000000;fill-opacity:1;fill-rule:evenodd;stroke:#0d0d0d;stroke-width:2.36946583;stroke-miterlimit:4;stroke-dasharray:none;stroke-dashoffset:0;stroke-opacity:1"
       r="40.315266" />
    <circle
       cy="624.50037"
       cx="261.39328"
       id="circle4206"
       style="opacity:1;fill:#000000;fill-opacity:1;fill-rule:evenodd;stroke:#0d0d0d;stroke-width:0.97062474;stroke-miterlimit:4;stroke-dasharray:none;stroke-dashoffset:0;stroke-opacity:1"
       r="16.514688" />
    <path
       style="fill:#000000;fill-rule:evenodd;stroke:#000000;stroke-width:1px;stroke-linecap:butt;stroke-linejoin:miter;stroke-opacity:1"
       d="M 237.05953,655.77892 216.3514,631.7878 c 0,0 -2.44721,-5.00267 2.52539,-8.46003 6.27627,-4.36379 8.33375,-0.12627 8.33375,-0.12627 8.25674,9.2549 22.72844,26.83218 22.72844,26.83218 5.60003,-0.0242 11.01373,0.60989 15.27855,2.58852 l 29.04189,-17.42513 c 7.87977,-4.45123 15.62542,4.74834 9.23496,9.62256 -9.43387,6.24161 -29.43801,19.16678 -29.43801,19.16678 -1.32232,11.41452 -2.74164,22.81696 -4.16688,34.21892 -14.83042,9.96697 -12.07607,17.19885 -8.52316,23.92799 3.02334,5.72615 8.76677,7.42207 14.96288,4.48255 l 4.16688,18.43528 c 0.10545,8.64232 -12.4091,8.22426 -14.64721,3.03046 l -8.33376,-31.8198 c -7.52743,1.76884 -13.71033,-0.14662 -20.96067,-2.02031 0,0 -11.98837,21.7648 -16.54124,28.34741 -6.61213,5.48686 -14.89415,-1.66003 -12.2481,-8.01809 1.28086,-3.07771 17.04632,-27.52666 17.04632,-27.52666 3.86492,-16.40189 8.86316,-36.74712 12.2481,-51.26524 z"
       id="path4208"
       inkscape:connector-curvature="0"
       sodipodi:nodetypes="ccscccccccsccccccscc" />
  </g>
</svg>
