<?xml version="1.0" encoding="UTF-8" standalone="no"?>
<!-- Created with Inkscape (http://www.inkscape.org/) -->

<svg
   xmlns:dc="http://purl.org/dc/elements/1.1/"
   xmlns:cc="http://creativecommons.org/ns#"
   xmlns:rdf="http://www.w3.org/1999/02/22-rdf-syntax-ns#"
   xmlns:svg="http://www.w3.org/2000/svg"
   xmlns="http://www.w3.org/2000/svg"
   xmlns:sodipodi="http://sodipodi.sourceforge.net/DTD/sodipodi-0.dtd"
   xmlns:inkscape="http://www.inkscape.org/namespaces/inkscape"
   width="210mm"
   height="297mm"
   viewBox="0 0 744.09448819 1052.3622047"
   id="svg4937"
   version="1.1"
   inkscape:version="0.91 r13725"
   sodipodi:docname="frida.svg">
  <defs
     id="defs4939" />
  <sodipodi:namedview
     id="base"
     pagecolor="#ffffff"
     bordercolor="#666666"
     borderopacity="1.0"
     inkscape:pageopacity="0.0"
     inkscape:pageshadow="2"
     inkscape:zoom="1.4"
     inkscape:cx="350.32005"
     inkscape:cy="473.17552"
     inkscape:document-units="px"
     inkscape:current-layer="layer2"
     showgrid="false"
     inkscape:window-width="4472"
     inkscape:window-height="1813"
     inkscape:window-x="0"
     inkscape:window-y="26"
     inkscape:window-maximized="0" />
  <metadata
     id="metadata4942">
    <rdf:RDF>
      <cc:Work
         rdf:about="">
        <dc:format>image/svg+xml</dc:format>
        <dc:type
           rdf:resource="http://purl.org/dc/dcmitype/StillImage" />
        <dc:title />
      </cc:Work>
    </rdf:RDF>
  </metadata>
  <g
     inkscape:groupmode="layer"
     id="layer2"
     inkscape:label="Capa 2">
    <path
       style="fill:#000000;fill-rule:evenodd;stroke:#000000;stroke-width:0.56753665px;stroke-linecap:butt;stroke-linejoin:miter;stroke-opacity:1"
       d="m 318.87119,492.69286 c 5.30864,-1.41492 10.67632,-4.09972 12.46924,-7.2379 2.73767,-4.79179 5.94797,-9.53109 5.94797,-9.53109 0,0 2.00655,-3.15314 6.01964,1.7199 4.01309,4.87303 12.82755,12.03927 20.56708,7.16623 7.73953,-4.87304 9.81774,-9.8894 17.98724,-7.16624 0.42998,2.43652 -0.14332,6.16297 -1.57656,8.16951 -1.43325,2.00655 -6.05596,6.47973 -1.43325,4.51473 5.52583,-2.34891 18.63221,-13.25753 18.63221,-13.25753 0,0 2.50817,-14.90576 3.94142,-17.48561 1.43325,-2.57984 0.50164,-11.32264 -3.51145,-11.32264 -6.30629,0 -8.60158,-0.33879 -12.25426,-1.28993 -6.23798,-0.6868 -18.70387,-2.14986 -18.70387,-2.14986 0,0 -16.64424,0.81075 -15.47906,5.58966 2.58678,2.10744 8.70248,-0.68144 16.90361,1.58377 5.58743,1.54328 7.1409,3.93062 7.1409,3.93062 0,0 -27.17306,4.77815 -31.35406,8.81807 -4.00252,3.86745 -17.91559,7.09457 -28.95159,24.65184 -0.60707,3.23051 1.1988,2.9977 3.65479,3.29647 z"
       id="path5551"
       inkscape:connector-curvature="0"
       sodipodi:nodetypes="cscssccscsscccscscc" />
    <path
       style="fill:#000000;fill-rule:evenodd;stroke:#000000;stroke-width:0.56753665px;stroke-linecap:butt;stroke-linejoin:miter;stroke-opacity:1"
       d="m 278.23865,464.4579 c 3.43979,1.1466 6.87958,14.61912 6.01964,18.91885 -0.85995,4.29975 0.35652,15.33942 12.46924,10.74935 13.61584,-5.15968 25.48034,-24.27465 39.12762,-38.12435 -0.20363,-2.57263 -2.43619,-2.89529 -6.16295,-4.72972 -4.99355,-2.45798 11.89594,-17.19895 11.89594,-17.19895 0,0 14.90577,-11.036 24.36519,-8.45616 9.45943,2.57984 21.0859,1.25583 28.66493,-2.43651 5.58966,-2.72317 26.94144,2.06669 31.24477,2.29319 5.44634,0.28665 -3.02789,-7.42791 -5.01636,-8.88613 0,0 -20.78207,-11.32265 -35.83116,-11.036 -8.67401,0.16522 -36.54779,1.86322 -44.57396,3.29647 -8.02619,1.43324 -39.75196,19.64123 -44.71729,21.78535 -6.30629,2.72316 -20.35919,14.69389 -23.64857,25.22513 -0.14861,3.14021 2.72317,7.45288 6.16296,8.59948 z"
       id="path5553"
       inkscape:connector-curvature="0"
       sodipodi:nodetypes="ssscscssssssscs" />
    <path
       style="fill:#000000;fill-rule:evenodd;stroke:#000000;stroke-width:0.56753665px;stroke-linecap:butt;stroke-linejoin:miter;stroke-opacity:1"
       d="m 257.38492,674.85848 c -1.4973,-4.0969 1.36158,-9.17278 5.66132,-12.32592 4.29974,-3.15315 15.19241,-17.62893 17.77225,-17.62893 2.57985,0 17.77226,-0.14333 17.77226,-0.14333 0,0 2.07409,-5.25113 10.60602,-8.31283 6.73626,-5.26718 39.91592,-2.93815 39.91592,-2.93815 6.40976,0.79307 26.57254,-5.50905 29.81152,1.82739 1.42,5.13898 -1.50491,7.7037 -13.25753,13.43668 l -11.75262,5.73299 c -1.55609,1.97178 -0.77887,4.23522 -0.10749,6.48543 -4.60759,6.6997 -6.48544,10.71352 -6.48544,10.71352 0,0 -10.60602,15.76572 -8.88613,17.77226 1.71989,2.00655 -6.81146,8.08168 -11.6093,9.45943 -3.25314,0.93417 -9.83373,1.98229 -14.61911,1.00327 -4.94013,-1.01068 -13.47252,-6.87958 -13.47252,-6.87958 -4.24268,2.17932 -17.99927,-9.01718 -18.0589,-13.11421 2.24943,-1.96275 16.32674,2.93626 26.80171,0.0717 6.93413,-1.89628 15.48566,-4.85982 18.6322,-8.88612 3.14264,-4.02132 13.90249,-9.74608 13.90249,-9.74608 4.38751,-1.20086 7.47458,-3.5093 9.60275,-6.59293 l -6.87958,-2.8665 c -6.60894,-0.45656 -11.16022,0.45864 -14.33247,2.2932 l -20.92539,6.30628 -13.75917,3.15315 c -1.77093,-0.13623 -15.15577,6.92649 -14.33246,10.60602 0.90269,4.03436 -12.89922,2.57984 -15.19241,2.57984 -2.2932,0 -5.89426,0.49344 -6.80792,-2.00654 z"
       id="path5555"
       inkscape:connector-curvature="0"
       sodipodi:nodetypes="cssccccscccssaccssccccccssc" />
    <path
       style="fill:#000000;fill-rule:evenodd;stroke:#000000;stroke-width:0.56753665px;stroke-linecap:butt;stroke-linejoin:miter;stroke-opacity:1"
       d="m 217.75863,669.50207 c 1.13074,2.81091 0.26893,6.51599 2.29021,8.7962 2.03922,2.30045 10.37177,16.63599 13.72589,19.7947 3.76466,3.54533 11.84053,16.15519 11.98859,16.15519 1.05208,0.48558 -3.98074,6.04759 -8.1767,5.61276 -3.18777,-0.33034 -16.49636,2.41259 -25.71448,-2.89977 -8.25828,-4.75921 -12.46204,-16.59089 -12.46204,-19.74403 0,-3.15314 -3.67969,-8.83799 0.85994,-14.90576 2.87967,-3.84903 10.92512,-16.65206 15.19241,-16.91231 1.13205,0.5071 1.71127,2.64898 2.29618,4.10302 z"
       id="path5557"
       inkscape:connector-curvature="0"
       sodipodi:nodetypes="asscssssca" />
    <path
       style="fill:#000000;fill-rule:evenodd;stroke:#000000;stroke-width:0.56753665px;stroke-linecap:butt;stroke-linejoin:miter;stroke-opacity:1"
       d="m 91.461323,395.87063 c -0.914982,5.5048 6.395979,-12.82837 14.835487,2.4323 2.9882,5.40338 7.2969,-16.21534 7.2969,-21.8907 0,-5.67537 16.21533,-56.75366 16.21533,-56.75366 0,0 5.67537,-5.67537 7.2969,-11.35074 1.62154,-5.67536 9.7292,-14.59379 14.5938,-21.07992 4.8646,-6.48614 2.4323,-0.81078 11.35073,-12.97227 8.91843,-12.1615 33.24144,-30.80913 45.40294,-38.10603 12.16149,-7.2969 42.15986,-9.7292 60.80749,-17.0261 18.64763,-7.2969 91.61663,4.05383 104.58889,9.7292 12.97227,5.67536 41.3491,25.94453 55.13214,34.86296 13.78303,8.91843 49.45676,68.91517 49.45676,68.91517 0,0 -4.05383,6.48613 -5.67537,2.43229 -1.62153,-4.05383 -17.83687,-26.7553 -21.89069,-34.86296 -4.05384,-8.10767 -5.67537,-11.35073 -21.07994,-24.323 -15.40457,-12.97227 -41.34909,-32.43066 -58.37519,-38.9168 -17.0261,-6.48613 -61.61827,-15.40456 -77.8336,-17.0261 -16.21533,-1.62153 -25.13377,-7.2969 -29.99836,0.81077 -4.8646,8.10767 -9.7292,28.37683 -12.16151,41.3491 -2.43229,12.97226 -14.59379,16.21533 10.53997,18.64763 25.13377,2.4323 112.69656,25.94453 122.42576,28.37683 9.7292,2.4323 36.4845,16.21533 34.86296,21.07993 -1.62153,4.8646 -20.26916,6.48613 -6.48613,23.51223 13.78303,17.0261 34.86297,32.43067 41.3491,35.67374 6.48613,3.24306 -4.05384,4.86459 3.24307,16.21532 7.2969,11.35074 12.97226,29.99837 20.26916,44.59217 7.2969,14.5938 12.97227,35.67373 12.97227,35.67373 0,0 12.1615,4.8646 11.35073,-13.78303 -0.81077,-18.64763 1.62153,-46.2137 9.7292,-45.40293 8.10767,0.81076 4.05383,12.97226 10.53996,10.53997 6.48614,-2.4323 18.64763,-19.4584 28.37684,-13.78303 9.7292,5.67536 25.13376,25.94452 24.32299,36.48449 -0.81076,10.53997 -2.43229,41.3491 -3.24306,47.83523 -0.81077,6.48614 0.81077,29.1876 -4.05384,38.10603 -4.8646,8.91844 -9.7292,27.56607 -17.83686,28.37683 -8.10766,0.81077 -20.26917,8.91844 -24.323,-8.91843 -4.05383,-17.83687 -12.1615,-22.70146 -13.78303,-27.56606 -1.62153,-4.8646 -11.35074,-6.48613 -7.2969,14.59379 4.05383,21.07994 11.35073,31.6199 11.35073,31.6199 l 1.62153,-9.7292 c 0,0 4.37569,-7.03377 7.29691,4.05384 3.68118,13.9721 -10.15851,22.28406 -15.20188,29.99836 -0.70407,0.70407 -16.00315,25.40665 -19.35705,34.66027 -6.76533,18.66599 -20.3212,36.64635 -46.81966,54.6716 -11.85144,9.78744 -25.83852,16.29548 -39.39894,24.03213 -42.14768,24.5588 -58.43242,35.62539 -65.6988,34.19552 -29.76028,2.98458 -41.24996,4.09123 -56.99957,-10.7265 5.7174,6.89709 6.35665,14.30353 16.30649,21.97017 23.81138,22.93653 36.45678,28.40657 71.58509,46.25048 5.29414,6.31374 35.43948,21.44574 49.73251,32.91526 20.81168,11.78756 42.51541,14.25867 44.5202,41.65985 0.22231,3.03854 15.85141,7.23927 15.85141,7.23927 8.53179,-7.39874 15.0395,-11.91861 22.06211,-15.16707 0,0 27.06121,4.23371 32.52903,-5.29461 7.57736,-13.20448 15.04372,-16.02105 24.94125,-19.9333 19.01281,-7.51527 61.14333,-4.81544 61.14333,-4.81544 l 7.10017,-10.58915 0.23747,-25.85039 c -7.76687,2.56169 -12.57778,-1.28127 -18.21344,-3.33723 -9.16421,-10.73654 -10.37214,-19.48399 -15.40456,-29.18756 -15.42461,-21.49329 -32.4126,-38.02922 -48.98183,-41.97159 2.41913,15.66649 7.11488,32.18669 6.82196,46.83618 -1.34184,31.72626 -22.45981,43.00043 -22.09164,39.63761 -15.47013,-5.20687 -24.13456,-12.33013 -33.65875,-20.70754 -8.746,-7.79086 -26.85865,-31.8501 -42.35237,-51.36073 -13.31869,-5.42196 -14.41484,-14.33607 -14.5938,-23.51223 -1.38125,-5.34799 17.5182,-19.855 26.7553,-29.99837 16.5956,-17.04813 29.79272,-38.70847 42.66659,-60.8075 -1.47132,-5.07664 0.93838,-8.21277 2.53365,-11.75611 l 17.22879,18.24225 c 0.50561,5.9541 -0.78865,5.8891 1.31828,9.80086 4.05473,-0.007 8.12839,-8.60216 21.33251,-15.42556 1.4938,-3.06107 4.85537,-9.83423 5.72604,-13.83371 2.12201,-7.39472 4.29537,-14.84281 -0.30404,-15.25254 -5.15432,5.21833 -5.35745,17.79034 -14.84716,18.19157 -6.86153,0.49631 -2.07382,-12.37599 -0.25337,-18.34359 -3.50074,-21.21208 1.53792,-16.19597 3.10397,-21.84574 2.11286,4.59653 2.64915,1.59742 4.76201,14.83127 0.79427,3.02478 6.47817,4.41139 7.72688,1.10163 2.78721,-7.38767 -7.91938,-22.32488 -7.91938,-22.32488 4.35321,-2.63927 9.35332,0.0539 19.4584,-16.40362 5.88957,-2.95017 9.5234,-4.77248 10.82661,-5.42946 -1.79176,-23.80441 13.14314,-16.98996 18.2261,-32.58665 -1.24025,-13.15549 1.19806,-33.62831 6.44117,-54.69372 0,0 -1.46347,-15.86287 7.23928,-18.88088 12.28975,-4.26195 16.49865,-27.544 7.96856,-43.21654 -25.64442,-15.90133 -2.97728,3.55785 -9.75706,-43.71326 -11.98321,-19.67106 -16.31386,-9.85518 -1.39273,-42.65098 2.48395,-8.83309 -8.38949,-65.54575 -13.97553,-75.9324 -1.89751,-3.52822 8.31395,-39.50927 -40.54677,-84.98717 -9.792,-11.45132 -42.02515,-14.43891 -80.52936,-40.69031 -28.72904,-8.6938 -53.45669,-8.90421 -93.78547,-14.44182 -95.64046,-13.132578 -122.62248,10.05237 -122.62248,10.05237 -23.22464,26.01009 -19.74403,-1.66989 -70.57322,35.33368 -28.91795,37.76035 -64.2188,39.94271 -82.84996,64.34565 -15.935892,20.8727 -18.771334,59.13545 -17.173641,70.72921 4.509439,32.72302 -8.103892,23.19093 4.586388,60.33677 7.706878,10.25112 4.901715,25.02512 1.379846,46.2137 z"
       id="path5559"
       inkscape:connector-curvature="0"
       sodipodi:nodetypes="ssscssssssscsssssssssssssscsssssssssssccscscccccccsccsacccccccccccccccccccccccscccccscccsccsccsscs" />
    <path
       style="fill:#000000;fill-rule:evenodd;stroke:#000000;stroke-width:0.56753665px;stroke-linecap:butt;stroke-linejoin:miter;stroke-opacity:1"
       d="m 93.375217,402.99017 c 15.711503,9.25183 18.946023,0.0253 18.799653,-0.17735 0,0 4.42686,10.05795 0.53206,13.35231 2.16812,6.52084 6.33445,5.23314 7.62628,1.82422 -4.55421,-19.40328 -6.37204,-11.42958 -0.60808,-21.00391 0.8683,-5.98646 -3.33979,-4.26676 -3.52903,-10.4814 0.11529,-7.66845 7.34026,-8.53558 5.18178,-28.68408 1.35803,-7.82839 17.22316,-10.62357 4.88406,-19.0577 0.26922,-6.39524 9.73936,-10.11263 11.99575,-14.20096 2.25638,-4.08832 -1.83312,-5.82398 1.53447,-10.33526 6.13509,-8.2187 7.05968,-5.57667 7.35219,-9.64151 0.40188,-5.58459 2.79053,-9.10986 2.79053,-9.10986 12.41891,-6.86801 18.15838,-32.69079 69.05849,-56.082 15.99456,-7.35032 41.45044,-15.40456 41.45044,-15.40456 -15.82295,32.89463 -32.24027,54.682 -34.15354,65.67209 -2.82807,0.63074 -6.47171,3.0237 -12.576,3.01529 -3.42714,5.36436 -7.98439,7.26139 -12.74604,9.68694 -4.66431,2.37596 -9.68453,4.065 -12.75324,6.07217 -3.06872,2.00716 -13.94804,11.42948 -19.3878,18.52086 -4.72921,18.26849 -8.21517,18.08357 -10.64132,19.45841 -14.23552,8.06689 -12.12608,31.88498 -17.0261,52.69982 -3.89842,37.14783 0.78336,46.9261 6.02946,74.18304 7.17068,-0.37333 15.79179,-11.07422 24.68342,-12.10511 11.99114,-1.39025 41.18735,-0.73252 52.99878,4.70898 4.63004,2.13304 24.99827,25.73911 28.88356,35.62305 1.41555,3.60108 4.78449,17.99794 3.90436,36.60069 -0.42838,9.05452 -5.46249,31.93816 -5.81869,37.2236 -0.23289,3.45576 1.20199,13.18539 4.04259,16.32283 1.78957,1.97656 20.39566,3.86071 20.67455,4.8646 0.54255,1.95295 7.2969,6.08074 10.53997,4.45921 3.24306,-1.62153 8.75679,-5.59858 17.02609,-9.83054 -0.0628,-1.15094 -1.21614,-2.73634 -1.21614,-2.73634 -4.28567,0.7973 -11.24471,4.13287 -11.75612,5.26998 -1.32879,2.95452 -6.08075,-2.83768 -5.67537,-4.8646 0.40539,-2.02691 11.95881,-9.47583 11.95881,-9.47583 0,0 9.22237,-5.33815 14.39111,-5.52335 3.34382,0.26 11.73484,5.74893 15.80995,4.45922 3.56223,-4.01862 -3.78992,-22.79165 -1.36817,-26.09655 5.32354,3.68429 14.13774,21.23195 14.13774,21.23195 0,0 3.09105,11.09736 -5.47267,14.44177 -9.91179,3.87088 -24.01897,11.40141 -24.01897,11.40141 0,0 -5.2985,5.41362 -8.71574,6.89152 -7.24029,3.13129 -13.37765,3.14172 -19.25571,3.59778 -5.39228,0.41836 -20.77588,-4.66191 -26.90731,-10.69199 -5.70052,-5.6063 -10.89524,-13.81069 -7.04353,-31.31586 2.43308,-11.05786 4.23571,-26.90555 4.98332,-41.03786 0.28636,-5.41295 -1.58583,-10.87821 -2.89142,-16.00245 -1.37754,-3.33776 -3.61299,-4.58669 -6.08075,-5.26998 0,0 -3.98093,-0.52535 -4.11882,-0.11874 -0.6737,1.98662 -0.47101,4.12166 1.62153,6.08075 2.52856,2.36731 1.93764,4.63612 0.93161,6.07619 -5.21305,1.17471 -10.10886,2.44684 -14.94087,4.32713 -5.86231,2.28121 -10.76376,7.67652 -16.90736,8.38308 -4.06428,0.46741 -7.96613,-0.45121 -11.25448,-4.62257 -1.3756,-1.74498 -3.10521,-3.84019 -5.31038,-4.07175 -3.65624,-0.38395 -6.74609,3.9105 -6.08075,6.48613 0.79188,3.06552 2.24541,3.6669 2.24541,3.6669 1.09394,0.93269 1.97861,7.34992 -0.60807,8.00632 -3.55812,0.90291 -12.53105,-6.96881 -12.53105,-6.96881 -2.82084,-1.47314 0,0.60808 -9.72921,-4.05383 -1.02799,-4.11199 5.69716,-7.74638 5.67537,-11.14804 -0.013,-2.02688 -3.61164,-2.83802 -3.64845,-4.8646 -0.071,-3.90713 3.85115,-9.22247 6.68883,-9.62785 2.83768,-0.40539 6.12769,-5.73857 10.03323,-6.68883 1.18895,-0.28928 3.2552,-0.75334 3.64845,0.40539 1.09111,3.21505 -11.93309,11.83421 -11.75611,14.3911 0.13221,1.90992 -3.27757,9.58263 12.39599,-0.65427 11.95005,-7.80496 21.70609,-6.84146 25.68036,-6.98144 3.26604,-0.11503 10.10999,0.0717 10.10999,0.0717 0,0 1.19366,-3.3885 -3.67094,-5.41541 -4.86459,-2.02692 -18.26683,-4.55337 -18.26683,-4.55337 l 5.67536,-4.05383 c 0,0 1.21615,-2.02691 -2.43229,-2.83768 -3.64845,-0.81077 -16.21534,-2.02692 -16.21534,-2.02692 l -27.16068,0 c 0,0 -10.46757,-3.77815 -7.49959,20.67455 1.09909,9.05523 -7.0989,4.99534 -9.12113,0.81077 -3.93542,-8.14352 -14.27255,-11.5503 -16.51937,-19.86379 -2.11889,-7.84013 -2.78752,-18.11916 -3.10483,-23.72299 -8.49746,-8.1094 -21.4811,-19.44014 -24.96796,-25.73377 -3.72447,-5.09736 -12.124513,-31.53806 -10.489293,-33.82417 z"
       id="path5561"
       inkscape:connector-curvature="0"
       sodipodi:nodetypes="ccccccccssscscccsscsccssssssssccsscccccscsssssccsscasssscsccsasasssscsccsccsssccc" />
    <path
       style="fill:#000000;fill-rule:evenodd;stroke:#000000;stroke-width:0.56753665px;stroke-linecap:butt;stroke-linejoin:miter;stroke-opacity:1"
       d="m 522.00299,481.93906 c 0.233,3.86991 3.35274,7.05157 4.27093,10.81818 1.25467,5.14691 3.39619,10.81841 1.62153,15.80995 -1.21632,3.4211 -7.70228,7.70228 -7.70228,7.70228 0,0 0.81077,11.75612 6.08075,10.94535 5.26998,-0.81077 10.45004,-7.37067 15.72003,-8.18144 5.26998,-0.81076 4.19293,8.39853 4.19293,10.02007 0,1.62153 -2.30934,17.86146 -8.15684,20.86284 -5.01032,2.57167 -9.20087,8.0627 -4.33627,13.33268 4.8646,5.26999 7.36645,4.64328 11.63317,0.45035 5.96073,-5.85767 15.23828,-30.16663 19.05301,-44.59217 -0.4938,-3.48543 -4.8646,-4.05383 -4.8646,-4.05383 -2.05992,0.50125 -3.96794,-0.0607 -5.26999,-4.8646 0,0 1.20197,-12.90705 -1.21614,-18.64763 -2.46018,-5.84043 -6.46079,-13.08672 -12.71021,-14.13924 -7.03239,-1.18438 -11.58519,-6.67304 -16.07623,-4.02924 -1.16653,0.68672 -2.41717,5.62031 -2.23979,8.56645 z"
       id="path5563"
       inkscape:connector-curvature="0"
       sodipodi:nodetypes="caacsssssscccassc" />
    <path
       style="fill:#000000;fill-rule:evenodd;stroke:#000000;stroke-width:0.56753665px;stroke-linecap:butt;stroke-linejoin:miter;stroke-opacity:1"
       d="m 529.51699,463.97503 c 0.70744,1.56057 4.22401,3.1763 8.56011,-1.48033 0.5432,-5.16133 0.40539,-10.17743 0.40539,-10.17743 0,0 8.65803,-5.45786 12.51348,-2.81942 7.35694,6.83018 5.55573,22.2699 9.71094,32.93441 1.06098,2.72305 3.86343,7.8702 3.86343,7.8702 3.41634,-5.70105 2.43426,-21.66506 2.64729,-34.84048 -2.45091,-8.31085 -13.98863,-18.54366 -15.7404,-19.86379 -2.99174,-1.6662 -7.02721,-1.35462 -10.41701,0.3829 -3.44402,4.29094 -5.97192,9.06356 -10.08751,14.02051 -1.93322,3.30868 -7.11465,6.89305 -1.45572,13.97343 z"
       id="path5565"
       inkscape:connector-curvature="0"
       sodipodi:nodetypes="ccccacccccc" />
    <path
       style="fill:#000000;fill-rule:evenodd;stroke:#000000;stroke-width:0.56753665px;stroke-linecap:butt;stroke-linejoin:miter;stroke-opacity:1"
       d="m 121.29599,875.84445 c 23.97214,7.21946 42.96301,23.57127 64.05056,36.07915 15.51219,9.61084 31.26681,18.56356 48.646,23.1068 -4.59434,-3.7836 -6.40124,-6.86106 -13.78303,-11.35073 -13.60336,-9.69256 -9.45895,-16.75584 -14.18842,-25.13376 -3.37299,-14.23541 8.38607,-6.73723 1.21615,-28.37683 0.9335,-7.05726 10.13387,-12.70595 13.37765,-16.62071 3.74407,2.74773 2.7519,13.37996 15.20188,6.68882 l 8.31036,-19.25567 c 4.66815,3.16561 11.29376,-10.56254 16.21533,-16.0127 7.28543,4.88183 5.27022,23.71463 7.70228,35.87648 1.6057,27.1198 23.19744,43.25174 37.70065,66.88822 7.24123,7.76595 13.72667,17.49693 23.51223,18.64761 10.21863,3.41283 11.95881,-25.74181 11.95881,-25.74181 -4.95056,-5.93655 -11.31255,-3.75653 -12.85142,-20.78098 -8.97438,5.14347 -3.71503,29.24777 -12.4881,29.95532 -9.60846,0.77491 6.06205,-33.63296 -15.80689,-21.53853 -8.01389,-2.64392 1.53655,-14.85918 1.44132,-23.30958 6.87265,-6.15499 19.99962,7.52821 26.55261,5.06731 8.39873,0.33513 13.84994,2.30783 25.37334,0.90704 6.97716,-3.51464 15.83163,-6.01839 25.27709,-8.20391 73.06715,27.36202 69.21342,9.43989 100.25975,12.06384 -55.15259,-1.5731 -91.55768,-8.75153 -97.82745,-19.36078 -3.64845,0.4054 -23.81925,6.70329 -25.44078,7.51402 -4.918,2.46912 -34.96133,2.78433 -34.96133,-2.64938 -16.98946,-9.11401 -19.04503,-21.67428 -27.16068,-32.83608 l -15.50293,-49.86212 -3.1447,-23.10686 -5.05289,0.66323 -20.60499,30.00679 c -6.2086,4.9357 -9.52822,2.44223 -14.42589,3.68916 -12.69191,-0.50641 -16.76615,5.62815 -23.56141,8.61146 -5.82606,13.66152 -11.81001,27.25016 -21.07993,39.32218 -6.36871,5.69279 -12.36258,12.44755 -20.26917,13.78302 -4.98663,1.40976 -5.48996,-3.58513 -6.89152,-7.29687 -14.83185,-2.87185 -14.78171,-1.7819 -41.75448,12.56685 z"
       id="path5573"
       inkscape:connector-curvature="0"
       sodipodi:nodetypes="cccccccccccccccscccccccccccccccccccc" />
    <path
       style="display:inline;opacity:1;fill:#ffffff;fill-opacity:1;fill-rule:evenodd;stroke:#ffffff;stroke-width:0.56753665px;stroke-linecap:butt;stroke-linejoin:miter;stroke-opacity:0"
       d="m 211.22739,698.34463 c 3.65307,2.74836 6.90021,6.0782 10.0926,7.3957 3.19239,1.3175 7.60094,0.70942 9.1718,1.77355 1.57086,1.06413 3.14172,1.26682 2.93903,2.12826 -0.20269,0.86144 -2.88836,5.21931 -5.11797,4.35787 -2.22961,-0.86144 -17.83431,-7.27591 -18.7971,-10.82301 -0.96279,-3.54711 -1.30679,-4.54774 -0.39414,-4.7781 0.63871,-0.16121 1.7164,-0.34721 2.10578,-0.0542 z"
       id="path5594"
       inkscape:connector-curvature="0"
       sodipodi:nodetypes="ssssssss" />
  </g>
</svg>
