<?xml version="1.0" encoding="UTF-8" standalone="no"?>
<!-- Created with Inkscape (http://www.inkscape.org/) -->

<svg
   xmlns:dc="http://purl.org/dc/elements/1.1/"
   xmlns:cc="http://creativecommons.org/ns#"
   xmlns:rdf="http://www.w3.org/1999/02/22-rdf-syntax-ns#"
   xmlns:svg="http://www.w3.org/2000/svg"
   xmlns="http://www.w3.org/2000/svg"
   xmlns:sodipodi="http://sodipodi.sourceforge.net/DTD/sodipodi-0.dtd"
   xmlns:inkscape="http://www.inkscape.org/namespaces/inkscape"
   width="148.64163mm"
   height="167.67412mm"
   viewBox="0 0 526.68295 594.12089"
   id="svg6059"
   version="1.1"
   inkscape:version="0.91 r13725"
   sodipodi:docname="mentira.svg">
  <defs
     id="defs6061">
    <marker
       inkscape:stockid="Arrow1Lstart"
       orient="auto"
       refY="0"
       refX="0"
       id="Arrow1Lstart"
       style="overflow:visible"
       inkscape:isstock="true">
      <path
         id="path7135"
         d="M 0,0 5,-5 -12.5,0 5,5 0,0 Z"
         style="fill:#000000;fill-opacity:1;fill-rule:evenodd;stroke:#000000;stroke-width:1pt;stroke-opacity:1"
         transform="matrix(0.8,0,0,0.8,10,0)"
         inkscape:connector-curvature="0" />
    </marker>
  </defs>
  <sodipodi:namedview
     id="base"
     pagecolor="#ffffff"
     bordercolor="#666666"
     borderopacity="1.0"
     inkscape:pageopacity="0.0"
     inkscape:pageshadow="2"
     inkscape:zoom="0.98994949"
     inkscape:cx="-337.41796"
     inkscape:cy="316.19318"
     inkscape:document-units="px"
     inkscape:current-layer="layer5"
     showgrid="false"
     fit-margin-top="1"
     fit-margin-left="1"
     fit-margin-right="1"
     fit-margin-bottom="1"
     inkscape:window-width="3578"
     inkscape:window-height="1813"
     inkscape:window-x="894"
     inkscape:window-y="26"
     inkscape:window-maximized="0" />
  <metadata
     id="metadata6064">
    <rdf:RDF>
      <cc:Work
         rdf:about="">
        <dc:format>image/svg+xml</dc:format>
        <dc:type
           rdf:resource="http://purl.org/dc/dcmitype/StillImage" />
        <dc:title></dc:title>
      </cc:Work>
    </rdf:RDF>
  </metadata>
  <g
     inkscape:label="Capa 1"
     inkscape:groupmode="layer"
     id="layer1"
     style="display:inline;opacity:0.728"
     transform="translate(-233.1412,481.8376)" />
  <g
     inkscape:groupmode="layer"
     id="layer5"
     inkscape:label="Capa 2"
     style="display:inline"
     transform="translate(-233.1412,481.8376)">
    <circle
       style="opacity:1;fill:#000000;fill-opacity:1;fill-rule:evenodd;stroke:none;stroke-width:0.5;stroke-miterlimit:4;stroke-dasharray:none;stroke-dashoffset:0;stroke-opacity:1"
       id="path7043"
       cx="471.99377"
       cy="-282.04932"
       r="42.5" />
    <circle
       r="42.5"
       cy="-288.11023"
       cx="659.88208"
       id="circle7045"
       style="opacity:1;fill:#000000;fill-opacity:1;fill-rule:evenodd;stroke:none;stroke-width:0.5;stroke-miterlimit:4;stroke-dasharray:none;stroke-dashoffset:0;stroke-opacity:1" />
    <path
       style="fill:#000000;fill-rule:evenodd;stroke:#000000;stroke-width:1px;stroke-linecap:butt;stroke-linejoin:miter;stroke-opacity:1"
       d="m 564.67527,-71.937579 c 4.86713,16.200412 28.84559,13.440393 30.30458,-2.020305 -4.21118,-71.224606 2.64079,-98.196606 11.61675,-116.672616 l 1.01016,276.276718 c 8.7265,25.357192 36.67692,27.153452 47.23732,1.040791 l 0.44643,-169.261827 9.50979,-0.147934 -0.11992,169.379123 c 6.7123,25.962069 43.30906,23.796139 47.98224,0 l -1.36729,-280.649091 c 20.80943,30.46691 14.11561,79.53815 14.49927,121.550065 5.09796,15.601703 23.67847,14.037875 28.78935,1.767767 1.98436,-55.450242 8.02873,-143.017842 -49.49747,-164.907402 l -90.40866,-0.50508 c -57.28804,22.80853 -52.71285,116.99891 -50.00255,164.149791 z"
       id="path7066"
       inkscape:connector-curvature="0"
       sodipodi:nodetypes="ccccccccccccccc" />
    <path
       style="display:inline;opacity:1;fill:#000000;fill-rule:evenodd;stroke:#000000;stroke-width:1px;stroke-linecap:butt;stroke-linejoin:miter;stroke-opacity:1"
       d="m 400.86292,85.024171 c 6.67258,22.086849 19.90656,30.705569 44.64285,15.714279 13.89464,-50.824891 37.46436,-89.966671 3.21429,-198.928571 l -1.42857,-17.499999 c -17.14142,-9.42958 -24.20366,-25.91459 -32.14286,-41.78572 -6.58494,-19.32445 -5.33942,-35.51671 -2.5,-51.07142 10.63946,-21.02166 33.17139,-17.98196 40,1.78571 l 1.07143,36.78571 6.69906,-33.82396 c 2.64268,-43.17498 -42.97362,-38.88058 -58.84192,-20.10461 -16.81452,15.16053 -34.0255,94.03893 -17.14286,134.285719 3.95021,9.416962 17.32067,15.97045 22.14286,15 28.0862,90.520118 -2.4285,141.417681 -5.71428,159.642862 z"
       id="path7068"
       inkscape:connector-curvature="0"
       sodipodi:nodetypes="ccccccccccscc" />
    <path
       style="fill:#000000;fill-rule:evenodd;stroke:#000000;stroke-width:1px;stroke-linecap:butt;stroke-linejoin:miter;stroke-opacity:1"
       d="m 417.193,-207.29802 c 3.60031,-13.47957 29.60977,-11.05337 28.91562,-0.12627 -4.62796,62.08557 30.1343,80.98167 81.191,76.77159 10.51429,-0.31116 16.98813,26.65303 -1.89402,28.03173 -81.19718,3.730239 -111.485,-34.70674 -108.2126,-104.67705 z"
       id="path7085"
       inkscape:connector-curvature="0"
       sodipodi:nodetypes="ccccc" />
    <path
       style="display:inline;opacity:1;fill:#000000;fill-rule:evenodd;stroke:#000000;stroke-width:1px;stroke-linecap:butt;stroke-linejoin:miter;stroke-opacity:1"
       d="M 345.04102 4.0585938 C 262.42096 2.7698487 192.31028 89.974218 300.32031 148.04492 C 307.6695 154.87147 314.33121 165.48893 298.71875 188.24805 L 341.65039 153.39648 C 483.15671 147.44674 466.45183 14.717387 357.30273 4.9042969 C 353.19864 4.3988442 349.1043 4.1219747 345.04102 4.0585938 z M 345.5332 13.195312 C 348.44043 13.186482 351.11052 13.390723 353.46875 13.816406 C 389.34861 20.293046 434.01469 44.467334 423.46875 89.708984 C 412.78695 135.53345 361.54499 150.05904 325.07617 142.56641 C 267.95453 130.83059 254.88012 98.100809 261.14844 64.886719 C 267.12043 33.242752 317.43001 13.280673 345.5332 13.195312 z "
       transform="translate(233.1412,-481.8376)"
       id="path7087" />
    <text
       xml:space="preserve"
       style="font-style:normal;font-weight:normal;font-size:12.5px;line-height:125%;font-family:sans-serif;text-align:center;letter-spacing:0px;word-spacing:0px;text-anchor:middle;fill:#000000;fill-opacity:1;stroke:none;stroke-width:1px;stroke-linecap:butt;stroke-linejoin:miter;stroke-opacity:1"
       x="579.82758"
       y="-375.4884"
       id="text7125"
       sodipodi:linespacing="125%"><tspan
         sodipodi:role="line"
         id="tspan7127"
         x="579.82758"
         y="-375.4884"
         style="font-style:normal;font-variant:normal;font-weight:normal;font-stretch:normal;font-size:90px;font-family:'White Rabbit';-inkscape-font-specification:'White Rabbit'">SI</tspan></text>
    <path
       style="color:#000000;font-style:normal;font-variant:normal;font-weight:normal;font-stretch:normal;font-size:medium;line-height:normal;font-family:sans-serif;text-indent:0;text-align:start;text-decoration:none;text-decoration-line:none;text-decoration-style:solid;text-decoration-color:#000000;letter-spacing:normal;word-spacing:normal;text-transform:none;direction:ltr;block-progression:tb;writing-mode:lr-tb;baseline-shift:baseline;text-anchor:start;white-space:normal;clip-rule:nonzero;display:inline;overflow:visible;visibility:visible;opacity:1;isolation:auto;mix-blend-mode:normal;color-interpolation:sRGB;color-interpolation-filters:linearRGB;solid-color:#000000;solid-opacity:1;fill:#000000;fill-opacity:1;fill-rule:evenodd;stroke:none;stroke-width:6;stroke-linecap:butt;stroke-linejoin:miter;stroke-miterlimit:1;stroke-dasharray:none;stroke-dashoffset:0;stroke-opacity:1;color-rendering:auto;image-rendering:auto;shape-rendering:auto;text-rendering:auto;enable-background:accumulate"
       d="m 358.46289,-467.74386 c -2.09745,-1.63211 -4.86542,-2.34574 -8.41016,-3.24637 -66.88108,-13.8751 -95.64333,21.71999 -92.85156,58.46093 -23.56423,11.54778 -27.83717,43.91833 -7.55078,58.67216 19.85138,11.52805 24.5349,13.15294 43.04297,13.2673 27.94494,28.95539 58.78767,17.3904 69.23493,2.68805 0,0 7.35253,1.19925 11.38812,1.77288 37.82344,-2.67042 53.83608,-34.94568 38.98437,-58.45703 20.76681,-15.98516 12.62768,-56.66126 -11.35683,-48.45505 7.95615,-33.15474 -26.77273,-40.19626 -42.48106,-24.70287 z m 30.27382,41.88094 c 1.50485,-1.63868 9.61808,-8.66769 10.96898,-8.93864 20.84056,6.55612 19.25648,33.91384 6.90199,36.95021 l -0.78711,4.52734 c 5.58616,6.63145 3.19114,15.25231 0.57841,23.1956 -5.07764,13.01383 -18.05403,29.68497 -32.23661,28.05831 -17.01035,-0.66857 -1.5362,-9.40873 -14.87667,-19.58845 -0.95884,11.50957 -7.12387,22.84373 -12.49442,27.15876 -12.23089,8.1964 -27.64961,6.65384 -39.57422,0.1582 -6.14226,-3.12918 -12.45759,-16.71624 -12.45759,-16.71624 -19.38863,7.64355 -47.71479,-16.35881 -44.65625,-35.23884 1.45133,-7.84062 4.61618,-19.95564 20.84459,-30.24692 -2.0493,-0.10915 -4.97184,1.53101 -6.95548,1.11959 4.50252,-56.7234 82.26165,-49.66415 86.82386,-44.81765 -3.55381,7.50617 -1.41354,9.31825 -1.29301,13.15008 18.88516,-43.35308 58.54498,-4.14525 39.21353,21.22865 z"
       id="path7129"
       inkscape:connector-curvature="0"
       sodipodi:nodetypes="cccccccccccccccccccccccccc" />
    <ellipse
       style="opacity:1;fill:#ffffff;fill-opacity:1;fill-rule:evenodd;stroke:#000000;stroke-width:2;stroke-linecap:butt;stroke-linejoin:miter;stroke-miterlimit:1;stroke-dasharray:none;stroke-dashoffset:0;stroke-opacity:1"
       id="path7411"
       ry="10.625"
       rx="11.249999"
       cy="-317.90567"
       cx="385.53571" />
    <ellipse
       cx="409.64285"
       cy="-295.2417"
       rx="8.2981043"
       ry="7.8370986"
       id="ellipse7415"
       style="opacity:1;fill:#ffffff;fill-opacity:1;fill-rule:evenodd;stroke:#000000;stroke-width:1.47521865;stroke-linecap:butt;stroke-linejoin:miter;stroke-miterlimit:1;stroke-dasharray:none;stroke-dashoffset:0;stroke-opacity:1" />
    <text
       xml:space="preserve"
       style="font-style:normal;font-weight:normal;font-size:12.5px;line-height:125%;font-family:sans-serif;text-align:center;letter-spacing:0px;word-spacing:0px;text-anchor:middle;display:inline;opacity:1;fill:#000000;fill-opacity:1;stroke:none;stroke-width:1px;stroke-linecap:butt;stroke-linejoin:miter;stroke-opacity:1"
       x="334.9151"
       y="-370.13779"
       id="text7419"
       sodipodi:linespacing="125%"><tspan
         sodipodi:role="line"
         id="tspan7421"
         x="334.9151"
         y="-370.13779"
         style="font-style:normal;font-variant:normal;font-weight:normal;font-stretch:normal;font-size:90px;font-family:'White Rabbit';-inkscape-font-specification:'White Rabbit';fill:#000000;fill-opacity:1">NO</tspan></text>
  </g>
</svg>
