<?xml version="1.0" encoding="UTF-8" standalone="no"?>
<!-- Created with Inkscape (http://www.inkscape.org/) -->

<svg
   xmlns:dc="http://purl.org/dc/elements/1.1/"
   xmlns:cc="http://creativecommons.org/ns#"
   xmlns:rdf="http://www.w3.org/1999/02/22-rdf-syntax-ns#"
   xmlns:svg="http://www.w3.org/2000/svg"
   xmlns="http://www.w3.org/2000/svg"
   xmlns:sodipodi="http://sodipodi.sourceforge.net/DTD/sodipodi-0.dtd"
   xmlns:inkscape="http://www.inkscape.org/namespaces/inkscape"
   id="svg4956"
   version="1.1"
   inkscape:version="0.91 r13725"
   width="77.938225"
   height="77.12896"
   viewBox="0 0 77.938225 77.12896"
   sodipodi:docname="movimiento.svg">
  <metadata
     id="metadata4962">
    <rdf:RDF>
      <cc:Work
         rdf:about="">
        <dc:format>image/svg+xml</dc:format>
        <dc:type
           rdf:resource="http://purl.org/dc/dcmitype/StillImage" />
        <dc:title></dc:title>
      </cc:Work>
    </rdf:RDF>
  </metadata>
  <defs
     id="defs4960" />
  <sodipodi:namedview
     pagecolor="#ffffff"
     bordercolor="#666666"
     borderopacity="1"
     objecttolerance="10"
     gridtolerance="10"
     guidetolerance="10"
     inkscape:pageopacity="0"
     inkscape:pageshadow="2"
     inkscape:window-width="4472"
     inkscape:window-height="1813"
     id="namedview4958"
     showgrid="false"
     fit-margin-top="1"
     fit-margin-left="1"
     fit-margin-bottom="1"
     fit-margin-right="1"
     inkscape:zoom="5.6568542"
     inkscape:cx="-32.174037"
     inkscape:cy="19.517141"
     inkscape:window-x="0"
     inkscape:window-y="26"
     inkscape:window-maximized="0"
     inkscape:current-layer="layer4" />
  <g
     inkscape:groupmode="layer"
     id="layer3"
     inkscape:label="Layer 1"
     style="display:inline;opacity:0.75"
     transform="translate(-242.15588,-305.06053)" />
  <g
     inkscape:groupmode="layer"
     id="layer4"
     inkscape:label="Layer 2"
     transform="translate(-242.15588,-305.06053)">
    <ellipse
       style="display:inline;opacity:1;fill:#000000;fill-opacity:1;fill-rule:evenodd;stroke:#0d0d0d;stroke-width:0.49092859;stroke-miterlimit:4;stroke-dasharray:none;stroke-dashoffset:0;stroke-opacity:1"
       id="path5002"
       cx="310.08154"
       cy="314.60989"
       rx="8.2545357"
       ry="8.3039026" />
    <path
       style="opacity:1;fill:#000000;fill-opacity:1;fill-rule:evenodd;stroke:#000000;stroke-width:0.5;stroke-linecap:butt;stroke-linejoin:miter;stroke-miterlimit:4;stroke-dasharray:none;stroke-opacity:1"
       d="m 258.58544,338.48213 c -3.58609,-2.67661 -9.28817,3.96913 -6.6875,6.0625 5.91667,5.16667 13.78012,14.78313 17.75,15.5 2.997,0.86623 16.02705,-9.8573 25.78347,-22.45711 -1.08527,-7.35929 -2.28989,-13.23539 -2.21671,-14.97511 0,-4.736 8.41532,-4.6704 7.64644,1.67196 0,0 0.83602,-3.5306 0.19305,-5.45849 -0.60188,-1.80468 -2.2856,-3.76851 -3.84375,-4.21875 -5.66266,-1.63626 -17.17059,-1.37897 -17.375,-1.375 l -4.51562,13.90625 c -0.4179,2.78795 2.86122,4.51844 5.10937,1.84375 0.34357,-1.07077 2.64802,-7.73615 3.40625,-10.375 1.18597,-0.14082 5.97267,-0.63961 5.8125,0.5 -0.7748,5.51278 -11.33681,20.58912 -11.1875,20.9375 l 0.9375,2.1875 c -2.54466,3.19641 -5.68839,5.67393 -9.0625,7.875 z"
       id="path5019"
       inkscape:connector-curvature="0"
       sodipodi:nodetypes="ccccccsscccccsccc" />
    <path
       style="display:inline;opacity:1;fill:#000000;fill-opacity:1;fill-rule:evenodd;stroke:#000000;stroke-width:0.5;stroke-linecap:butt;stroke-linejoin:miter;stroke-miterlimit:4;stroke-dasharray:none;stroke-opacity:1"
       d="m 294.42617,322.96353 c -0.325,-2.24198 4.15807,-3.43583 4.99395,-0.53033 l 2.38648,12.02081 12.10921,1.92245 c 3.39208,0.17966 3.31239,6.13888 -1.41421,4.97184 0,0 -3.73695,-0.10031 -14.93764,-2.47487 -0.93933,-4.76421 -2.34782,-10.33421 -3.13779,-15.9099 z"
       id="path5021"
       inkscape:connector-curvature="0"
       sodipodi:nodetypes="ccccccc" />
    <path
       style="display:inline;opacity:1;fill:#000000;fill-opacity:1;fill-rule:evenodd;stroke:#000000;stroke-width:0.5;stroke-linecap:butt;stroke-linejoin:miter;stroke-miterlimit:4;stroke-dasharray:none;stroke-opacity:1"
       d="m 288.20264,349.00987 5.8125,-6.25 13.1875,11.625 11.3125,21.5 c 1.99849,3.14409 -5.51221,6.80686 -7.5,4.125 -0.18977,-0.25603 -10.5625,-19.9375 -10.5625,-19.9375 z"
       id="path5038"
       inkscape:connector-curvature="0"
       sodipodi:nodetypes="ccccscc" />
    <path
       style="opacity:1;fill:#000000;fill-opacity:1;fill-rule:evenodd;stroke:#000000;stroke-width:1px;stroke-linecap:butt;stroke-linejoin:miter;stroke-opacity:1"
       d="m 255.39973,322.19839 14.71666,0.13258"
       id="path5055"
       inkscape:connector-curvature="0" />
    <path
       style="opacity:1;fill:#000000;fill-opacity:1;fill-rule:evenodd;stroke:#000000;stroke-width:1px;stroke-linecap:butt;stroke-linejoin:miter;stroke-opacity:1"
       d="m 243.15795,324.14293 21.38998,-0.0884"
       id="path5057"
       inkscape:connector-curvature="0" />
    <path
       style="opacity:1;fill:#000000;fill-opacity:1;fill-rule:evenodd;stroke:#000000;stroke-width:1px;stroke-linecap:butt;stroke-linejoin:miter;stroke-opacity:1"
       d="m 252.6155,326.48522 14.53988,-0.13258"
       id="path5059"
       inkscape:connector-curvature="0" />
  </g>
</svg>
