<?xml version="1.0" encoding="UTF-8" standalone="no"?>
<!-- Generator: Adobe Illustrator 19.0.0, SVG Export Plug-In . SVG Version: 6.00 Build 0)  -->

<svg
   xmlns:dc="http://purl.org/dc/elements/1.1/"
   xmlns:cc="http://creativecommons.org/ns#"
   xmlns:rdf="http://www.w3.org/1999/02/22-rdf-syntax-ns#"
   xmlns:svg="http://www.w3.org/2000/svg"
   xmlns="http://www.w3.org/2000/svg"
   xmlns:sodipodi="http://sodipodi.sourceforge.net/DTD/sodipodi-0.dtd"
   xmlns:inkscape="http://www.inkscape.org/namespaces/inkscape"
   version="1.1"
   id="Layer_1"
   x="0px"
   y="0px"
   viewBox="0 0 511.999 511.999"
   style="enable-background:new 0 0 511.999 511.999;"
   xml:space="preserve"
   inkscape:version="0.91 r13725"
   sodipodi:docname="talking (1).svg"><metadata
     id="metadata4201"><rdf:RDF><cc:Work
         rdf:about=""><dc:format>image/svg+xml</dc:format><dc:type
           rdf:resource="http://purl.org/dc/dcmitype/StillImage" /></cc:Work></rdf:RDF></metadata><defs
     id="defs4199" /><sodipodi:namedview
     pagecolor="#ffffff"
     bordercolor="#666666"
     borderopacity="1"
     objecttolerance="10"
     gridtolerance="10"
     guidetolerance="10"
     inkscape:pageopacity="0"
     inkscape:pageshadow="2"
     inkscape:window-width="4472"
     inkscape:window-height="1813"
     id="namedview4197"
     showgrid="false"
     inkscape:zoom="0.77148589"
     inkscape:cx="-561.45514"
     inkscape:cy="303.03736"
     inkscape:window-x="0"
     inkscape:window-y="26"
     inkscape:window-maximized="0"
     inkscape:current-layer="Layer_1" /><g
     id="g4137"><g
       id="g4139"><path
         d="m 479.112,385.722 4.599,-135.493 c 0.87748,-22.61151 -26.16713,-21.80208 -29.809,-5.86 l -2.19,123.233 -34.625,0 c 14.21586,-3.8148 23.62575,-16.60152 23.862,-29.862 l 0.285,-104.227 c -20.72551,-72.988 -90.27691,-12.858 -89.09661,43.87714 l -1.03839,8.6e-4 -63.112,0 c -10.136,0 -18.351,8.216 -18.351,18.352 0,10.136 8.216,18.352 18.351,18.352 l 69.02625,0 -0.53135,11.376 -54.1609,-0.198 c -16.49022,1.47051 -25.74126,16.22969 -20.54,30.124 l 49.988,126.325 c 14.56606,27.99998 48.82647,5.60535 40.953,-16.205 l -6.365,-16.086 19.841,-51.446 57.687,0 35.128,91.086 c 7.53811,13.06799 22.5083,2.99726 18.897,-7.287 l -32.317,-83.8 c 8.4964,0.045 12.04611,-5.69249 13.519,-12.262 z m -123.749,35.924 -20.671,-52.239 19.89,0.058 c -15.78995,10.84323 -3.30615,28.27504 9.908,28.515 z"
         id="path4141"
         inkscape:connector-curvature="0"
         sodipodi:nodetypes="cccccccccssscccccccccccccccccc" /></g></g><g
     id="g4143"
     transform="translate(12,-2)"><g
       id="g4145"><circle
         cx="382.26001"
         cy="156.34"
         r="40.501999"
         id="circle4147" /></g></g><g
     id="g4149"><g
       id="g4151"><path
         d="m 158.14683,314.091 65.86717,0 c 27.00881,-4.22892 19.74579,-36.10105 0,-36.701 l -63.111,0 C 155.3107,177.94715 77.321924,165.81414 70.765,233.512 l 0.285,104.227 c 1.500503,15.31746 9.797752,26.47843 23.863,29.862 l -38.625,0 -2.19,-125.233 c -7.745202,-21.26295 -32.477081,-10.27087 -29.809,5.86 l 4.6,137.493 c 3.936871,9.26379 9.314937,12.261 17.519,12.261 L 14.09,481.779 c -3.185549,14.74903 14.671912,17.32915 18.897,7.288 l 35.128,-91.086 57.687,0 19.842,51.445 c -23.53166,32.54598 21.04222,63.69599 34.588,32.291 L 230.22,355.392 c 4.61672,-15.87171 -5.64802,-29.8446 -20.475,-30.124 l -0.065,0 c -72.037,0.21 -51.48793,0.58228 -51.48793,0.58228 z m -8.01983,83.891 0,0 c 8.389,0 15.19,-6.801 15.19,-15.191 0,-5.746 -3.192,-10.745 -7.897,-13.325 l 19.89,-0.058 -20.672,52.24 -9.128,-23.666 z"
         id="path4153"
         inkscape:connector-curvature="0"
         sodipodi:nodetypes="cccccccccccccccccccccccccsccccc" /></g></g><g
     id="g4155"
     transform="translate(-16,-2)"><g
       id="g4157"><circle
         cx="139.745"
         cy="148.34"
         r="40.501999"
         id="circle4159" /></g></g><g
     id="g4161"
     transform="matrix(1.0667479,0,0,1.0667479,-1.4486234,9.4912302)"><g
       id="g4163"><path
         d="m 246.224,16.353 c -40.061,0 -72.537,23.385 -72.537,52.233 0,15.512 9.399,29.437 24.309,39.004 -1.4492,6.31211 -9.32471,25.15088 -9.32471,25.15088 8.34594,2.5127 27.15978,-9.99524 35.00071,-14.50888 22.76905,10.51057 56.02266,-5.39757 56.02266,-5.39757 0,0 10.79237,15.15265 33.74506,19.95312 -5.12273,-10.68378 -14.1282,-28.68993 -14.1282,-28.68993 8.1656,-3.60246 20.62196,-28.817582 19.44848,-35.51162 0.001,-28.848 -32.474,-52.233 -72.536,-52.233 z"
         id="path4165"
         inkscape:connector-curvature="0"
         sodipodi:nodetypes="sscccccccs" /></g></g><g
     id="g4167" /><g
     id="g4169" /><g
     id="g4171" /><g
     id="g4173" /><g
     id="g4175" /><g
     id="g4177" /><g
     id="g4179" /><g
     id="g4181" /><g
     id="g4183" /><g
     id="g4185" /><g
     id="g4187" /><g
     id="g4189" /><g
     id="g4191" /><g
     id="g4193" /><g
     id="g4195" /></svg>